<svg width="185" height="24" viewBox="0 0 185 24" fill="none" xmlns="http://www.w3.org/2000/svg"><path d="M.408 18h3.124v-6.49h7.216V8.606H3.532V4.888h7.216V1.94H.408V18zm12.628 0h3.102V6.12h-3.102V18zM12.64 2.776c0 1.122.792 1.936 1.936 1.936 1.166 0 1.958-.814 1.958-1.936 0-1.144-.792-1.98-1.958-1.98-1.122 0-1.936.836-1.936 1.98zM18.557 18h3.058v-6.556c0-1.848 1.1-2.904 2.53-2.904 1.606 0 2.42 1.056 2.42 2.75V18h3.102v-7.172c0-3.102-1.782-4.95-4.598-4.95-1.474 0-2.706.66-3.476 1.738V6.12h-3.036V18zm17.124.242c1.87 0 3.498-.836 4.356-2.068V18h2.926v-7.304c0-2.992-2.002-4.818-5.5-4.818-2.662 0-4.4 1.122-5.61 2.706l2.794 1.386c.55-.99 1.452-1.562 2.794-1.562 1.716 0 2.574.88 2.574 2.156v.154h-3.124c-3.3 0-5.346 1.518-5.346 3.982 0 2.09 1.54 3.542 4.136 3.542zm.88-2.508c-1.254 0-1.848-.44-1.848-1.298 0-.924.726-1.496 2.53-1.496h2.794v.638c-.594 1.276-2.024 2.156-3.476 2.156zM45.305 18h3.058v-6.556c0-1.848 1.1-2.904 2.53-2.904 1.606 0 2.42 1.056 2.42 2.75V18h3.102v-7.172c0-3.102-1.782-4.95-4.598-4.95-1.474 0-2.706.66-3.476 1.738V6.12h-3.036V18zm19.323.242c2.838 0 4.818-1.584 5.83-3.784l-2.838-1.166c-.484 1.21-1.54 2.068-2.948 2.068-1.826 0-3.278-1.496-3.278-3.3 0-1.848 1.43-3.344 3.256-3.344 1.364 0 2.464.77 2.948 2.046l2.794-1.122c-.924-2.244-3.036-3.762-5.786-3.762-3.52 0-6.226 2.684-6.226 6.182 0 3.454 2.684 6.182 6.248 6.182zM72.247 18h3.102V6.12h-3.102V18zM71.85 2.776c0 1.122.792 1.936 1.936 1.936 1.166 0 1.958-.814 1.958-1.936 0-1.144-.792-1.98-1.958-1.98-1.122 0-1.936.836-1.936 1.98zm9.57 15.466c1.87 0 3.499-.836 4.357-2.068V18h2.926v-7.304c0-2.992-2.002-4.818-5.5-4.818-2.662 0-4.4 1.122-5.61 2.706l2.794 1.386c.55-.99 1.452-1.562 2.794-1.562 1.716 0 2.574.88 2.574 2.156v.154h-3.124c-3.3 0-5.346 1.518-5.346 3.982 0 2.09 1.54 3.542 4.136 3.542zm.88-2.508c-1.253 0-1.847-.44-1.847-1.298 0-.924.726-1.496 2.53-1.496h2.794v.638c-.594 1.276-2.024 2.156-3.476 2.156zM91.046 18h3.036V.664h-3.036V18zm10.571 0h3.102V6.12h-3.102V18zm-.396-15.224c0 1.122.792 1.936 1.936 1.936 1.166 0 1.958-.814 1.958-1.936 0-1.144-.792-1.98-1.958-1.98-1.122 0-1.936.836-1.936 1.98zM107.137 18h3.058v-6.556c0-1.848 1.1-2.904 2.53-2.904 1.606 0 2.42 1.056 2.42 2.75V18h3.102v-7.172c0-3.102-1.782-4.95-4.598-4.95-1.474 0-2.706.66-3.476 1.738V6.12h-3.036V18zm18.179.242c3.454.022 5.104-2.068 5.104-3.916 0-2.552-2.332-3.234-4.312-3.63-1.738-.374-2.706-.572-2.706-1.32 0-.66.572-1.144 1.76-1.144 1.1 0 1.848.462 2.332 1.254l2.772-1.122c-1.1-1.584-2.596-2.53-5.104-2.53-2.926-.022-4.862 1.716-4.862 3.718 0 2.508 2.222 3.124 4.224 3.542 1.518.308 2.794.506 2.794 1.364 0 .704-.66 1.298-1.892 1.298-1.254 0-2.2-.55-2.728-1.606l-2.926 1.144c.946 1.892 2.728 2.948 5.544 2.948zm7.001-.242h3.102V6.12h-3.102V18zm-.396-15.224c0 1.122.792 1.936 1.936 1.936 1.166 0 1.958-.814 1.958-1.936 0-1.144-.792-1.98-1.958-1.98-1.122 0-1.936.836-1.936 1.98zm11.22 15.4c1.54 0 2.904-.704 3.74-1.87v.902c0 1.87-1.364 3.168-3.278 3.168-1.562 0-2.442-.572-3.234-1.606l-2.508 1.958c1.342 1.562 3.124 2.354 5.83 2.354 3.652 0 6.226-2.508 6.226-5.962v-11h-3.036v1.562c-.792-1.1-2.112-1.804-3.696-1.804-3.036 0-5.764 2.398-5.764 6.16s2.794 6.138 5.72 6.138zm.594-2.816c-1.826 0-3.3-1.474-3.3-3.344 0-1.892 1.474-3.344 3.3-3.344 1.87 0 3.3 1.474 3.3 3.344 0 1.87-1.43 3.344-3.3 3.344zm8.562 2.64h3.014v-6.556c0-1.848 1.1-2.904 2.53-2.904 1.606 0 2.42 1.056 2.42 2.75V18h3.124v-7.172c0-3.102-1.804-4.95-4.62-4.95-1.452 0-2.662.638-3.454 1.694V.664h-3.014V18zm12.381-9.196h2.2v4.994c0 3.234 1.452 4.422 3.938 4.422 1.1 0 2.068-.33 2.838-.902l-1.386-2.376c-.352.308-.682.44-1.1.44-.77 0-1.298-.44-1.298-1.694V8.804h3.124V6.12h-3.124V1.786l-2.992 1.76V6.12h-2.2v2.684zm15.144 9.438c3.454.022 5.104-2.068 5.104-3.916 0-2.552-2.332-3.234-4.312-3.63-1.738-.374-2.706-.572-2.706-1.32 0-.66.572-1.144 1.76-1.144 1.1 0 1.848.462 2.332 1.254l2.772-1.122c-1.1-1.584-2.596-2.53-5.104-2.53-2.926-.022-4.862 1.716-4.862 3.718 0 2.508 2.222 3.124 4.224 3.542 1.518.308 2.794.506 2.794 1.364 0 .704-.66 1.298-1.892 1.298-1.254 0-2.2-.55-2.728-1.606l-2.926 1.144c.946 1.892 2.728 2.948 5.544 2.948z" fill="#fff"/></svg>