<svg width="100" height="27" viewBox="0 0 100 27" fill="none" xmlns="http://www.w3.org/2000/svg"><g filter="url(#filter0_d_206_6)"><rect x="4" y="3" width="92" height="18.269" rx="9.135" fill="#ED4536"/><path d="M26.45 16.273h1.269v-2.07h1.476l1.053 2.07h1.422l-1.296-2.403c.729-.37 1.152-1.116 1.152-1.944 0-1.251-.9-2.223-2.412-2.223H26.45v6.57zm2.565-5.4c.81 0 1.224.414 1.224 1.062 0 .585-.387 1.107-1.224 1.107h-1.296v-2.17h1.296zm5.575 5.499c1.071 0 1.755-.441 2.241-1.125l-1.017-.594c-.243.396-.63.648-1.206.648-.72 0-1.233-.396-1.395-1.026h3.861v-.468c0-1.44-1.053-2.493-2.51-2.493a2.509 2.509 0 00-2.548 2.538c0 1.413 1.008 2.52 2.574 2.52zm-.027-4.005c.648 0 1.116.333 1.278.936H33.25a1.351 1.351 0 011.314-.936zm4.761 4.005c.765 0 1.431-.342 1.782-.846v.747h1.197v-2.988c0-1.224-.819-1.971-2.25-1.971-1.089 0-1.8.459-2.295 1.107l1.143.567c.225-.405.594-.64 1.143-.64.702 0 1.053.36 1.053.883v.063h-1.278c-1.35 0-2.187.62-2.187 1.629 0 .855.63 1.449 1.692 1.449zm.36-1.026c-.513 0-.756-.18-.756-.531 0-.378.297-.612 1.035-.612h1.143v.26c-.243.523-.828.883-1.422.883zm5.764 1.026c.63 0 1.179-.288 1.521-.765v.666h1.224V9.172h-1.224v2.862c-.333-.45-.864-.72-1.503-.72-1.242 0-2.358.98-2.358 2.529 0 1.548 1.143 2.529 2.34 2.529zm.243-1.17c-.747 0-1.35-.603-1.35-1.368 0-.765.603-1.368 1.35-1.368.765 0 1.35.612 1.35 1.368 0 .756-.585 1.368-1.35 1.368zm5.676 1.07h1.26V11.71l1.917 2.6 1.97-2.645v4.608h1.243v-6.57h-1.18l-2.024 2.709-1.953-2.71h-1.233v6.57zm9.784.1c1.467 0 2.574-1.134 2.574-2.53 0-1.403-1.125-2.528-2.574-2.528-1.458 0-2.565 1.125-2.565 2.529 0 1.395 1.107 2.529 2.565 2.529zm.009-1.18c-.747 0-1.332-.602-1.332-1.358 0-.756.585-1.36 1.332-1.36a1.34 1.34 0 011.332 1.36 1.34 1.34 0 01-1.332 1.359zm3.38 1.08h1.232v-2.564c0-.82.414-1.143 1.053-1.143.28 0 .513.072.648.17l.45-1.223a1.804 1.804 0 00-.819-.19c-.62 0-1.107.262-1.34.838v-.747h-1.225v4.86zm6.041.1c1.072 0 1.755-.441 2.242-1.125l-1.017-.594c-.243.396-.63.648-1.206.648-.72 0-1.233-.396-1.395-1.026h3.86v-.468c0-1.44-1.052-2.493-2.51-2.493a2.509 2.509 0 00-2.548 2.538c0 1.413 1.008 2.52 2.575 2.52zm-.026-4.005c.647 0 1.115.333 1.277.936h-2.591a1.351 1.351 0 011.314-.936z" fill="#fff"/></g><defs><filter id="filter0_d_206_6" x="0" y="0" width="100" height="27" filterUnits="userSpaceOnUse" color-interpolation-filters="sRGB"><feFlood flood-opacity="0" result="BackgroundImageFix"/><feColorMatrix in="SourceAlpha" values="0 0 0 0 0 0 0 0 0 0 0 0 0 0 0 0 0 0 127 0" result="hardAlpha"/><feOffset dy="1"/><feGaussianBlur stdDeviation="2"/><feComposite in2="hardAlpha" operator="out"/><feColorMatrix values="0 0 0 0 0 0 0 0 0 0 0 0 0 0 0 0 0 0 0.25 0"/><feBlend in2="BackgroundImageFix" result="effect1_dropShadow_206_6"/><feBlend in="SourceGraphic" in2="effect1_dropShadow_206_6" result="shape"/></filter></defs></svg>