<svg width="268" height="23" viewBox="0 0 268 23" fill="none" xmlns="http://www.w3.org/2000/svg"><path d="M9.545 18.345c.92 0 1.771-.552 2.139-1.357v-.115l-1.242-.552V8.754c0-1.679-1.587-2.829-3.91-2.829-2.622 0-4.416 1.449-4.807 3.91l.092.023c.782-1.311 2.139-2.116 3.542-2.116 1.288 0 2.07.667 2.07 1.725v1.38l-2.231.828c-3.036 1.081-4.37 2.323-4.37 4.002 0 1.541 1.127 2.668 2.76 2.668 1.265 0 2.599-.69 3.772-1.909h.161c.115 1.127.92 1.909 2.024 1.909zm-5.957-3.634c0-1.058.759-1.886 2.369-2.507l1.472-.575v4.048c-.529.621-1.219.943-1.909.943-1.127 0-1.932-.782-1.932-1.909zm13.443-5.888c.874-.736 1.725-1.081 2.553-1.081 1.196 0 1.932.736 1.932 1.932v7.13l-1.08 1.081V18h5.151v-.115L24.53 16.85V9.03c0-1.84-1.357-3.105-3.335-3.105-1.472 0-2.829.69-4.094 2.093h-.138l-.16-2.093h-.23l-3.819 1.058v.115l1.265 1.15v8.602l-1.058 1.035V18h5.152v-.115l-1.08-1.035V8.823zM27.04 12.71c0 3.289 1.955 5.658 4.715 5.658 1.288 0 2.208-.529 3.404-1.932h.138l.253 1.909 3.91-.92v-.115l-1.196-1.127V.29h-.23l-4.048 1.104v.092l1.265 1.173V6.27c-.39-.184-1.173-.345-1.978-.345-3.519 0-6.233 2.921-6.233 6.785zm2.875-1.403c0-2.783 1.357-4.485 3.45-4.485.76 0 1.45.207 1.886.552v8.234c-.39.506-.966.828-1.725.828-2.116 0-3.61-2.162-3.61-5.129zm19.93 7.038c2.99 0 4.899-1.587 4.899-4.048 0-3.979-5.957-2.875-5.957-5.773 0-1.104.805-1.863 1.955-1.863.299 0 .575.046.782.138l2.438 2.07h.115V6.546c-.782-.368-2.116-.621-3.243-.621-2.783 0-4.623 1.541-4.623 3.818 0 4.002 5.934 2.898 5.934 5.796 0 1.219-.874 2.047-2.116 2.047a2.06 2.06 0 01-.966-.23l-3.013-2.438h-.115v2.599c.805.437 2.645.828 3.91.828zm10.486 0c1.587 0 2.99-.874 3.657-2.3l-.092-.069c-.529.46-1.173.713-1.794.713-.966 0-1.633-.552-1.633-1.771V7.42h2.99l.161-1.15h-3.15V3.924h-.392l-4.209 3.381v.115h1.587v8.878c.322 1.426 1.541 2.047 2.875 2.047zm5.932-1.495l-1.058 1.035V18h5.29v-.115l-1.219-1.035V9.283c.3-.69 1.15-1.288 1.725-1.288.07 0 .138 0 .207.023l2.162 1.449h.115V6.224c-.207-.184-.644-.299-1.127-.299-1.127 0-2 .667-3.036 2.369h-.115l-.16-2.369h-.23l-3.819 1.081v.092l1.265 1.15v8.602zm16.506 1.495c.92 0 1.77-.552 2.139-1.357v-.115l-1.242-.552V8.754c0-1.679-1.587-2.829-3.91-2.829-2.622 0-4.416 1.449-4.807 3.91l.092.023c.782-1.311 2.139-2.116 3.542-2.116 1.288 0 2.07.667 2.07 1.725v1.38l-2.231.828c-3.036 1.081-4.37 2.323-4.37 4.002 0 1.541 1.127 2.668 2.76 2.668 1.265 0 2.599-.69 3.772-1.909h.16c.116 1.127.92 1.909 2.025 1.909zm-5.957-3.634c0-1.058.759-1.886 2.369-2.507l1.472-.575v4.048c-.53.621-1.22.943-1.91.943-1.126 0-1.931-.782-1.931-1.909zm13.213 3.634c1.587 0 2.99-.874 3.657-2.3l-.092-.069c-.53.46-1.173.713-1.794.713-.966 0-1.633-.552-1.633-1.771V7.42h2.99l.16-1.15h-3.15V3.924h-.391l-4.21 3.381v.115h1.588v8.878c.322 1.426 1.54 2.047 2.875 2.047zm10.257 0c2.783 0 4.738-1.702 5.267-4.531l-.115-.069c-.966 1.61-2.323 2.438-3.956 2.438-2.53 0-4.209-1.955-4.347-4.991h8.257c-.621-3.473-2.323-5.267-4.991-5.267-3.266 0-5.727 2.737-5.727 6.417 0 3.588 2.3 6.003 5.612 6.003zm-.483-11.569c1.403 0 2.231 1.058 2.714 3.634H97.13c.115-2.323 1.081-3.634 2.668-3.634zM111.834 22.6c3.657 0 6.44-1.909 6.44-4.439 0-1.196-.598-2.185-1.541-2.484h-5.98c-.943 0-1.564-.529-1.564-1.288 0-.46.276-.851.759-1.058a6.08 6.08 0 001.863.276c2.783 0 4.922-1.725 4.922-3.864 0-1.15-.621-2.185-1.679-2.691l.023-.092 2.691.713h.115V5.879h-.115l-3.174.667a5.85 5.85 0 00-2.668-.621c-2.691 0-4.807 1.748-4.807 3.956 0 1.449.92 2.645 2.346 3.266v.046c-1.334.368-2.208 1.357-2.208 2.576 0 .874.46 1.541 1.15 1.909v.092l-1.472.621c-.23.207-.345.575-.345 1.012 0 1.84 2.185 3.197 5.244 3.197zm.276-9.729c-1.242 0-2.07-1.265-2.07-3.427 0-1.817.598-2.783 1.702-2.783 1.265 0 2.093 1.288 2.093 3.427 0 1.817-.598 2.783-1.725 2.783zm-3.657 6.003c0-.414.115-.782.322-1.012.345.115.713.184 1.127.184h4.807c.966 0 1.426.391 1.426 1.196 0 1.472-1.564 2.484-3.634 2.484-2.3 0-4.048-1.242-4.048-2.852zm13.481-15.341c1.035 0 1.725-.621 1.725-1.633s-.69-1.61-1.725-1.61c-1.058 0-1.748.598-1.748 1.61s.69 1.633 1.748 1.633zM124.51 18v-.092l-1.081-1.058V5.925h-.23l-4.048 1.104v.092l1.265 1.15v8.579l-1.058 1.058V18h5.152zm7.351.345c2.783 0 4.738-1.702 5.267-4.531l-.115-.069c-.966 1.61-2.323 2.438-3.956 2.438-2.53 0-4.209-1.955-4.347-4.991h8.257c-.621-3.473-2.323-5.267-4.991-5.267-3.266 0-5.727 2.737-5.727 6.417 0 3.588 2.3 6.003 5.612 6.003zm-.483-11.569c1.403 0 2.231 1.058 2.714 3.634h-5.382c.115-2.323 1.081-3.634 2.668-3.634zm11.162 11.569c2.99 0 4.899-1.587 4.899-4.048 0-3.979-5.957-2.875-5.957-5.773 0-1.104.805-1.863 1.955-1.863.299 0 .575.046.782.138l2.438 2.07h.115V6.546c-.782-.368-2.116-.621-3.243-.621-2.783 0-4.623 1.541-4.623 3.818 0 4.002 5.934 2.898 5.934 5.796 0 1.219-.874 2.047-2.116 2.047a2.06 2.06 0 01-.966-.23l-3.013-2.438h-.115v2.599c.805.437 2.645.828 3.91.828zM159.535 18v-.115l-1.449-1.035V7.42h2.622l.161-1.15h-2.484c-1.242 0-1.817-.552-1.817-1.702 0-1.357.667-2.576 1.403-2.668l3.266 1.426h.115V.543c-.299-.138-.943-.253-1.472-.253-2.438 0-4.393 2.369-4.784 5.704l-1.679 1.334v.092h1.656v9.43l-1.058 1.035V18h5.52zm7.795.345c3.542 0 5.98-2.622 5.98-6.348 0-3.634-2.323-6.072-5.75-6.072-3.542 0-5.957 2.622-5.957 6.348 0 3.634 2.3 6.072 5.727 6.072zm.391-.874c-1.817 0-3.013-2.323-3.013-5.957 0-3.082.897-4.738 2.461-4.738 1.817 0 3.036 2.323 3.036 5.957 0 3.082-.92 4.738-2.484 4.738zm8.398-.621l-1.058 1.035V18h5.29v-.115l-1.219-1.035V9.283c.299-.69 1.15-1.288 1.725-1.288.069 0 .138 0 .207.023l2.162 1.449h.115V6.224c-.207-.184-.644-.299-1.127-.299-1.127 0-2.001.667-3.036 2.369h-.115l-.161-2.369h-.23l-3.818 1.081v.092l1.265 1.15v8.602zm17.16 1.495c2.99 0 4.899-1.587 4.899-4.048 0-3.979-5.957-2.875-5.957-5.773 0-1.104.805-1.863 1.955-1.863.299 0 .575.046.782.138l2.438 2.07h.115V6.546c-.782-.368-2.116-.621-3.243-.621-2.783 0-4.623 1.541-4.623 3.818 0 4.002 5.934 2.898 5.934 5.796 0 1.219-.874 2.047-2.116 2.047a2.06 2.06 0 01-.966-.23l-3.013-2.438h-.115v2.599c.805.437 2.645.828 3.91.828zm10.671 0c1.426 0 2.76-.69 4.025-2.093h.138l.276 2.093 3.841-.943v-.115l-1.173-1.081V5.925h-.23l-4.048 1.104v.115l1.265 1.15v7.13c-.874.736-1.679 1.104-2.484 1.104-1.173 0-1.863-.736-1.863-1.955V5.902h-.23l-4.048 1.104v.115l1.265 1.15v6.969c0 1.817 1.311 3.105 3.266 3.105zm15.163 0c2.392 0 4.071-1.403 4.623-3.726l-.115-.069c-.69 1.058-1.702 1.633-2.99 1.633-2.507 0-4.324-2.093-4.324-5.06 0-2.392 1.242-4.324 2.806-4.324.184 0 .391 0 .621.069l3.128 2.553H223V6.546c-.782-.391-1.932-.621-2.99-.621-3.634 0-6.141 2.668-6.141 6.486 0 3.542 2.116 5.934 5.244 5.934zm10.916 0c2.392 0 4.071-1.403 4.623-3.726l-.115-.069c-.69 1.058-1.702 1.633-2.99 1.633-2.507 0-4.324-2.093-4.324-5.06 0-2.392 1.242-4.324 2.806-4.324.184 0 .391 0 .621.069l3.128 2.553h.138V6.546c-.782-.391-1.932-.621-2.99-.621-3.634 0-6.141 2.668-6.141 6.486 0 3.542 2.116 5.934 5.244 5.934zm11.284 0c2.783 0 4.738-1.702 5.267-4.531l-.115-.069c-.966 1.61-2.323 2.438-3.956 2.438-2.53 0-4.209-1.955-4.347-4.991h8.257c-.621-3.473-2.323-5.267-4.991-5.267-3.266 0-5.727 2.737-5.727 6.417 0 3.588 2.3 6.003 5.612 6.003zm-.483-11.569c1.403 0 2.231 1.058 2.714 3.634h-5.382c.115-2.323 1.081-3.634 2.668-3.634zm11.162 11.569c2.99 0 4.899-1.587 4.899-4.048 0-3.979-5.957-2.875-5.957-5.773 0-1.104.805-1.863 1.955-1.863.299 0 .575.046.782.138l2.438 2.07h.115V6.546c-.782-.368-2.116-.621-3.243-.621-2.783 0-4.623 1.541-4.623 3.818 0 4.002 5.934 2.898 5.934 5.796 0 1.219-.874 2.047-2.116 2.047a2.06 2.06 0 01-.966-.23l-3.013-2.438h-.115v2.599c.805.437 2.645.828 3.91.828zm10.602 0c2.99 0 4.899-1.587 4.899-4.048 0-3.979-5.957-2.875-5.957-5.773 0-1.104.805-1.863 1.955-1.863.299 0 .575.046.782.138l2.438 2.07h.115V6.546c-.782-.368-2.116-.621-3.243-.621-2.783 0-4.623 1.541-4.623 3.818 0 4.002 5.934 2.898 5.934 5.796 0 1.219-.874 2.047-2.116 2.047a2.06 2.06 0 01-.966-.23l-3.013-2.438h-.115v2.599c.805.437 2.645.828 3.91.828z" fill="#fff"/></svg>