<svg width="165" height="38" viewBox="0 0 165 38" fill="none" xmlns="http://www.w3.org/2000/svg"><path d="M68.642 28.859h-2.236v-1.431h5.983v1.43h-2.215v6.602h-1.532v-6.601z" fill="#fff"/><path d="M71.442 32.49c0-1.716 1.355-3.092 3.14-3.092 1.785 0 3.153 1.375 3.153 3.092s-1.356 3.092-3.153 3.092c-1.796 0-3.14-1.386-3.14-3.092zm4.782-.011c0-.924-.727-1.661-1.632-1.661-.904 0-1.631.737-1.631 1.66 0 .925.716 1.662 1.631 1.662.916 0 1.632-.737 1.632-1.661zM78.44 32.479c0-1.882 1.366-3.081 2.887-3.081.793 0 1.454.352 1.851.901v-.78h1.52v5.5c0 1.727-1.29 2.981-3.118 2.981-1.356 0-2.248-.396-2.92-1.177l1.256-.978c.397.516.837.803 1.62.803.96 0 1.642-.649 1.642-1.584v-.45c-.42.582-1.101.934-1.874.934-1.465 0-2.865-1.188-2.865-3.07zm4.815-.011c0-.936-.716-1.673-1.652-1.673-.937 0-1.653.726-1.653 1.672 0 .947.738 1.673 1.653 1.673.914 0 1.652-.737 1.652-1.672zM85.48 32.5c0-1.727 1.345-3.102 3.119-3.102 1.774 0 3.075 1.288 3.075 3.047v.572h-4.728c.198.77.827 1.253 1.708 1.253.705 0 1.178-.307 1.477-.792l1.245.727c-.596.835-1.434 1.374-2.745 1.374-1.917 0-3.152-1.353-3.152-3.08h.002zm1.51-.671h3.173c-.198-.738-.77-1.145-1.566-1.145-.794 0-1.367.451-1.609 1.145h.002zM92.037 29.519h1.1V28.23l1.5-.88v2.166h1.566v1.343h-1.566v2.442c0 .627.265.846.65.846.21 0 .374-.066.552-.22l.694 1.188c-.385.286-.87.45-1.422.45-1.245 0-1.972-.593-1.972-2.211v-2.498h-1.101v-1.342l-.001.004zM97.15 26.79h1.51v3.455c.397-.528 1.003-.847 1.73-.847 1.411 0 2.314.924 2.314 2.476v3.586h-1.565v-3.356c0-.847-.408-1.375-1.213-1.375-.716 0-1.267.528-1.267 1.452v3.279h-1.51v-8.67h.002zM103.465 32.5c0-1.727 1.345-3.102 3.118-3.102 1.774 0 3.075 1.288 3.075 3.047v.572h-4.727c.198.77.827 1.253 1.707 1.253.705 0 1.179-.307 1.477-.792l1.245.727c-.595.835-1.433 1.374-2.744 1.374-1.917 0-3.152-1.353-3.152-3.08h.001zm1.509-.671h3.174c-.199-.738-.771-1.145-1.566-1.145s-1.367.451-1.609 1.145h.001zM110.429 29.519h1.499v.913c.287-.704.882-1.024 1.642-1.024.397 0 .75.1 1.003.232l-.552 1.496c-.166-.12-.451-.209-.793-.209-.782 0-1.29.396-1.29 1.397v3.136h-1.509v-5.941zM117.543 35.461v-.059l.566-.494V30.06h-.861v-.058l.872-.635c.142-1.718 1.109-2.964 2.321-2.964.236 0 .53.047.684.118v1.258h-.059l-1.497-.659c-.412.07-.754.765-.754 1.518 0 .612.271.882.872.882h1.19l-.083.54h-1.402v4.848l.766.494v.059h-2.616.001zM120.973 32.567c0-1.87 1.214-3.224 2.945-3.224 1.732 0 2.805 1.247 2.805 3.071s-1.214 3.224-2.946 3.224c-1.731 0-2.804-1.247-2.804-3.07zm4.407.212c0-1.824-.673-3.023-1.674-3.023-.872 0-1.391.882-1.391 2.447 0 1.825.672 3.024 1.673 3.024.872 0 1.392-.882 1.392-2.448zM127.961 30.485l-.673-.553v-.06l1.744-.529h.106l.083 1.188h.059c.541-.847.99-1.188 1.58-1.188.258 0 .495.07.613.153v1.47h-.059l-1.05-.706c-.035-.011-.07-.011-.105-.011-.331 0-.837.365-1.013.776v3.883l.613.494v.06h-2.462v-.06l.565-.494v-4.423h-.001zM136.705 35.65a6.65 6.65 0 01-2.027-.353v-7.741l-.659-.554v-.047l1.838-.553h.118v3.893h.071c.6-.682 1.084-.953 1.732-.953 1.379 0 2.38 1.212 2.38 2.883 0 2-1.437 3.423-3.453 3.423v.001zm.307-5.436c-.46 0-.813.2-1.037.518v4.176c.248.177.625.294 1.05.294 1.143 0 1.908-.895 1.908-2.365 0-1.47-.789-2.623-1.921-2.623zM140.794 32.615c0-1.87 1.238-3.27 2.851-3.27 1.297 0 2.157.917 2.475 2.646h-4.278c.024 1.624.907 2.682 2.239 2.682.849 0 1.543-.446 2.051-1.33l.059.036c-.271 1.4-1.238 2.26-2.603 2.26-1.65 0-2.794-1.213-2.794-3.024zm1.061-1h3.004c-.271-1.306-.719-1.859-1.485-1.859-.861 0-1.426.694-1.521 1.86h.002zM147.287 34.626V30.06h-.837V30l1.933-1.587h.199v1.106h1.697l-.083.54h-1.615v3.906c0 .634.318.93.837.93.342 0 .695-.142.99-.425l.048.035a1.964 1.964 0 01-1.779 1.13c-.673 0-1.238-.33-1.391-1.012l.001.002zM151.448 34.626V30.06h-.837V30l1.932-1.587h.2v1.106h1.696l-.083.54h-1.614v3.906c0 .634.318.93.837.93.341 0 .694-.142.99-.425l.048.035a1.966 1.966 0 01-1.78 1.13c-.672 0-1.237-.33-1.391-1.012l.002.002zM154.96 32.615c0-1.87 1.238-3.27 2.851-3.27 1.297 0 2.156.917 2.474 2.646h-4.277c.024 1.624.907 2.682 2.239 2.682.848 0 1.543-.446 2.051-1.33l.059.036c-.272 1.4-1.238 2.26-2.604 2.26-1.65 0-2.793-1.213-2.793-3.024zm1.06-1h3.005c-.272-1.306-.719-1.859-1.485-1.859-.861 0-1.427.694-1.521 1.86h.001zM161.488 30.485l-.673-.553v-.06l1.745-.529h.105l.083 1.188h.059c.542-.847.99-1.188 1.58-1.188.259 0 .495.07.613.153v1.47h-.059l-1.049-.706c-.036-.011-.071-.011-.106-.011-.33 0-.837.365-1.013.776v3.883l.614.494v.06h-2.463v-.06l.565-.494v-4.423h-.001zM119.624 9.772c.87-.007 2.36.192 2.357 1.318-.005 1.133-1.197 1.928-2.36 1.967l.003-3.287v.002zm-.009 4.583c1.508-.082 2.756.511 2.767 1.552-.007 1.122-1.508 1.857-2.776 1.961l.009-3.513zm-1.759 5.114c4.864-.008 7.443-1.868 7.452-3.67.004-1.445-1.526-2.194-2.687-2.39v-.103c1.784-.754 2.121-1.789 2.124-2.391-.005-.87-.395-2.15-3.919-2.511-1.085-.08-2.136-.16-4.006-.154.103.355.106 3.06.1 3.552l-.002 1.775c-.003.302-.006 5.054-.109 5.884l1.047.01v-.002zm25.386.13c-.051-.554.05-6.386.05-6.901.208.263 7.298 6.218 8.627 7.088l.101-.035c.041-1.394.205-3.823.301-6.091.163-2.314.274-4.467.38-5.384l-2.675-.108c0 .674-.068 6.204-.068 6.864-.554-.451-7.045-5.947-8.6-7.101l-.112.05c-.107.958-.28 3.539-.432 6.037-.083 2.502-.25 4.9-.307 5.504l2.733.078.002-.002zm14.544.058c-.054-.313-.104-3.89-.104-5.083l.005-.562.113.005c1.031 1.359 4.82 5.427 5.023 5.695l2.176-1.87c-.601-.645-3.721-3.581-4.321-4.186.889-.84 3.36-3.059 4.031-3.717l-2.021-1.772c-.352.43-3.992 4.191-4.897 5.246l-.108-.01v-.53c.004-1.422.069-4.482.115-4.74h-2.982c-.007.354.044 3.515.044 4.874l-.003 1.723c-.008 1.786-.059 4.48-.065 4.924l2.992.003h.002zm-138.091.872l3.636 1.559-.439 1.056-3.359-1.133-3.362 1.738-3.12-1.373-3.212 1.57-3.462-1.65-3.284 1.343-.54-1.004 3.618-1.772 4 1.414 2.774-1.49 2.842 1.335 3.91-1.593h-.002zM12.829 2.65l4.295 4.459-3.87-.63 5.162 5.112-5.504-1.118 5.278 5.197-5.98-1.27.8 4.885-2.489-.003.659-4.807-4.472 2.505 3.553-6.29-3.899 1.967 4.697-6.71-2.925.772L12.83 2.65v-.002zM2.144 0L.935.081.034 6.515l.223 7.865-.12 7.758L0 27.44l7.122-.077 9.561.201 6.562-.51 2.64-.294-.218-11.404-.845-6.747.458-7.642L8.925.097 2.144 0zm42.999 10.958c.004-1.18.008-2.279.008-2.616l-2.836-.005c.048.551.13 1.554.123 2.62v.56c-.004 2.855-.054 3.982-.635 4.838-.428.602-1.1 1.008-1.981 1.005-.739-.004-1.45-.271-1.9-.947-.607-.828-.746-1.916-.738-4.25l.005-1.004c.005-1.386.053-2.213.135-2.585l-2.926.003v2.227l-.003.814c0 3.727.253 4.845 1.038 5.97 1.163 1.653 3.051 1.85 4.188 1.856 1.75 0 3.142-.54 4.159-1.67 1.191-1.387 1.357-3.172 1.365-6.11l-.004-.704.002-.002zm2.783 8.68c.234-.644 1.937-5.658 2.228-6.357h.021c.282.615 2.092 3.676 3.219 5.383l.069-.004c1.02-1.3 3.396-5.013 3.76-5.448.18.355 2.03 5.21 2.576 6.425l2.452-1.04c-.56-1.136-3.602-8.243-4.501-10.074l-.073.003c-.647.973-3.36 5.354-3.956 6.191-.474-.737-3.095-5.218-3.889-6.536l-.094.005c-.592 1.316-3.916 9.986-4.221 10.602l2.41.85zM66.41 10.16c2.36.072 2.75 1.2 2.749 1.979-.003 1.42-1.383 2.303-2.756 2.584l.006-4.563h.001zm-.014 9.244c-.004-.28-.003-2.015.004-2.32l.006-.64c3.602-.594 5.632-2.608 5.636-4.703.001-1.748-1.433-2.669-3.338-3.05-1.198-.247-2.998-.34-5.165-.34.003.246.095 3.445.089 3.812l-.004 1.711c0 1.087-.052 4.894-.097 5.53H66.396zm9.75-5.332c.006-1.975 1.133-3.837 3.45-3.84 1.555.007 3.028 1.09 3.02 3.41 0 2.587-1.632 3.864-3.355 3.864-1.625 0-3.116-1.12-3.114-3.432m9.909 4.645a86.403 86.403 0 01-3.608-.236l.004-.063c2.06-1.06 3.155-2.92 3.157-4.947.008-3.167-2.297-5.2-5.805-5.2-4.129.004-6.658 2.846-6.66 5.917-.009 1.414.556 2.86 1.817 3.893 1.593 1.315 3.845 1.36 4.042 1.362.148.001.576.032 1.24.16 1.772.342 3.768.806 5.47 1.154l.341-2.042.002.002zm11.883-7.761c-.003-1.18-.003-2.275-.003-2.613h-2.813c.004.546.05 1.553.046 2.616l-.004.556c0 2.857-.006 3.985-.616 4.84a2.286 2.286 0 01-1.93 1.004c-.792 0-1.454-.273-1.896-.947-.671-.828-.74-1.919-.733-4.246v-1.01c.003-1.38.006-2.214.044-2.579h-2.845c0 .332-.036 1.549-.039 2.23v.816c0 3.718.304 4.84 1.08 5.969 1.147 1.65 3.071 1.848 4.15 1.855 1.78-.007 3.167-.54 4.15-1.672 1.203-1.386 1.396-3.168 1.402-6.109l.004-.709.003-.001zm4.851 4.108c.312-.607 1.37-2.746 1.714-3.341.282.487 1.4 2.527 1.791 3.19l-3.507.152h.002zm-2.213 4.5c.396-.609 1.232-2.428 1.383-2.736l5.097-.243c.192.238 1.407 2.28 1.738 2.981l2.488-1.41c-.854-1.17-4.954-7.737-6.65-10.247l-.12.005c-1.085 1.63-5.607 9.319-6.258 10.405l2.322 1.246zm30.11-4.502c.312-.608 1.37-2.747 1.714-3.342.281.487 1.4 2.527 1.791 3.19l-3.507.152h.002zm-2.213 4.5c.395-.61 1.232-2.43 1.383-2.737l5.097-.243c.191.238 1.407 2.28 1.737 2.982l2.488-1.412c-.853-1.168-4.954-7.735-6.65-10.246l-.119.006c-1.085 1.63-5.607 9.318-6.258 10.405l2.322 1.245z" fill="#fff"/></svg>