<svg width="256" height="22" viewBox="0 0 256 22" fill="none" xmlns="http://www.w3.org/2000/svg"><path d="M9.13 17.33c.88 0 1.694-.528 2.046-1.298v-.11l-1.188-.528V8.156c0-1.606-1.518-2.706-3.74-2.706-2.508 0-4.224 1.386-4.598 3.74l.088.022c.748-1.254 2.046-2.024 3.388-2.024 1.232 0 1.98.638 1.98 1.65v1.32l-2.134.792c-2.904 1.034-4.18 2.222-4.18 3.828 0 1.474 1.078 2.552 2.64 2.552 1.21 0 2.486-.66 3.608-1.826h.154c.11 1.078.88 1.826 1.936 1.826zm-5.698-3.476c0-1.012.726-1.804 2.266-2.398l1.408-.55v3.872c-.506.594-1.166.902-1.826.902-1.078 0-1.848-.748-1.848-1.826zm12.859-5.632c.836-.704 1.65-1.034 2.442-1.034 1.144 0 1.848.704 1.848 1.848v6.82l-1.034 1.034V17h4.928v-.11l-1.012-.99V8.42c0-1.76-1.298-2.97-3.19-2.97-1.408 0-2.706.66-3.916 2.002h-.132L16.07 5.45h-.22l-3.652 1.012v.11l1.21 1.1V15.9l-1.012.99V17h4.928v-.11l-1.034-.99V8.222zm9.573 3.718c0 3.146 1.87 5.412 4.51 5.412 1.232 0 2.112-.506 3.256-1.848h.132l.242 1.826 3.74-.88v-.11L36.6 15.262V.06h-.22l-3.872 1.056v.088l1.21 1.122V5.78c-.374-.176-1.122-.33-1.892-.33-3.366 0-5.962 2.794-5.962 6.49zm2.75-1.342c0-2.662 1.298-4.29 3.3-4.29.726 0 1.386.198 1.804.528v7.876c-.374.484-.924.792-1.65.792-2.024 0-3.454-2.068-3.454-4.906zm19.063 6.732c2.86 0 4.686-1.518 4.686-3.872 0-3.806-5.698-2.75-5.698-5.522 0-1.056.77-1.782 1.87-1.782.286 0 .55.044.748.132l2.332 1.98h.11V6.044c-.748-.352-2.024-.594-3.102-.594-2.662 0-4.422 1.474-4.422 3.652 0 3.828 5.676 2.772 5.676 5.544 0 1.166-.836 1.958-2.024 1.958a1.97 1.97 0 01-.924-.22l-2.882-2.332h-.11v2.486c.77.418 2.53.792 3.74.792zm10.03 0c1.518 0 2.86-.836 3.498-2.2l-.088-.066c-.506.44-1.122.682-1.716.682-.924 0-1.562-.528-1.562-1.694V6.88h2.86l.154-1.1H57.84V3.536h-.374L53.44 6.77v.11h1.518v8.492c.308 1.364 1.474 1.958 2.75 1.958zm5.674-1.43l-1.012.99V17h5.06v-.11l-1.166-.99V8.662c.286-.66 1.1-1.232 1.65-1.232a.61.61 0 01.198.022l2.068 1.386h.11V5.736c-.198-.176-.616-.286-1.078-.286-1.078 0-1.914.638-2.904 2.266h-.11l-.154-2.266h-.22l-3.652 1.034v.088l1.21 1.1V15.9zm15.788 1.43c.88 0 1.694-.528 2.046-1.298v-.11l-1.188-.528V8.156c0-1.606-1.518-2.706-3.74-2.706-2.508 0-4.224 1.386-4.598 3.74l.088.022c.748-1.254 2.046-2.024 3.388-2.024 1.232 0 1.98.638 1.98 1.65v1.32l-2.134.792c-2.904 1.034-4.18 2.222-4.18 3.828 0 1.474 1.078 2.552 2.64 2.552 1.21 0 2.486-.66 3.608-1.826h.154c.11 1.078.88 1.826 1.936 1.826zm-5.698-3.476c0-1.012.726-1.804 2.266-2.398l1.408-.55v3.872c-.506.594-1.166.902-1.826.902-1.078 0-1.848-.748-1.848-1.826zM86.11 17.33c1.518 0 2.86-.836 3.498-2.2l-.088-.066c-.506.44-1.122.682-1.716.682-.924 0-1.562-.528-1.562-1.694V6.88h2.86l.154-1.1h-3.014V3.536h-.374L81.842 6.77v.11h1.518v8.492c.308 1.364 1.474 1.958 2.75 1.958zm9.811 0c2.662 0 4.532-1.628 5.038-4.334l-.11-.066c-.924 1.54-2.222 2.332-3.784 2.332-2.42 0-4.026-1.87-4.158-4.774h7.898c-.594-3.322-2.222-5.038-4.774-5.038-3.124 0-5.478 2.618-5.478 6.138 0 3.432 2.2 5.742 5.368 5.742zM95.46 6.264c1.342 0 2.134 1.012 2.596 3.476h-5.148c.11-2.222 1.034-3.476 2.552-3.476zM106.972 21.4c3.498 0 6.16-1.826 6.16-4.246 0-1.144-.572-2.09-1.474-2.376h-5.72c-.902 0-1.496-.506-1.496-1.232 0-.44.264-.814.726-1.012.55.176 1.144.264 1.782.264 2.662 0 4.708-1.65 4.708-3.696 0-1.1-.594-2.09-1.606-2.574l.022-.088 2.574.682h.11V5.406h-.11l-3.036.638a5.596 5.596 0 00-2.552-.594c-2.574 0-4.598 1.672-4.598 3.784 0 1.386.88 2.53 2.244 3.124v.044c-1.276.352-2.112 1.298-2.112 2.464 0 .836.44 1.474 1.1 1.826v.088l-1.408.594c-.22.198-.33.55-.33.968 0 1.76 2.09 3.058 5.016 3.058zm.264-9.306c-1.188 0-1.98-1.21-1.98-3.278 0-1.738.572-2.662 1.628-2.662 1.21 0 2.002 1.232 2.002 3.278 0 1.738-.572 2.662-1.65 2.662zm-3.498 5.742c0-.396.11-.748.308-.968.33.11.682.176 1.078.176h4.598c.924 0 1.364.374 1.364 1.144 0 1.408-1.496 2.376-3.476 2.376-2.2 0-3.872-1.188-3.872-2.728zm12.894-14.674c.99 0 1.65-.594 1.65-1.562 0-.968-.66-1.54-1.65-1.54-1.012 0-1.672.572-1.672 1.54 0 .968.66 1.562 1.672 1.562zM119.096 17v-.088l-1.034-1.012V5.45h-.22l-3.872 1.056v.088l1.21 1.1V15.9l-1.012 1.012V17h4.928zm7.032.33c2.662 0 4.532-1.628 5.038-4.334l-.11-.066c-.924 1.54-2.222 2.332-3.784 2.332-2.42 0-4.026-1.87-4.158-4.774h7.898c-.594-3.322-2.222-5.038-4.774-5.038-3.124 0-5.478 2.618-5.478 6.138 0 3.432 2.2 5.742 5.368 5.742zm-.462-11.066c1.342 0 2.134 1.012 2.596 3.476h-5.148c.11-2.222 1.034-3.476 2.552-3.476zm10.677 11.066c2.86 0 4.686-1.518 4.686-3.872 0-3.806-5.698-2.75-5.698-5.522 0-1.056.77-1.782 1.87-1.782.286 0 .55.044.748.132l2.332 1.98h.11V6.044c-.748-.352-2.024-.594-3.102-.594-2.662 0-4.422 1.474-4.422 3.652 0 3.828 5.676 2.772 5.676 5.544 0 1.166-.836 1.958-2.024 1.958a1.97 1.97 0 01-.924-.22l-2.882-2.332h-.11v2.486c.77.418 2.53.792 3.74.792zm16.256-.33v-.11l-1.386-.99V6.88h2.508l.154-1.1h-2.376c-1.188 0-1.738-.528-1.738-1.628 0-1.298.638-2.464 1.342-2.552l3.124 1.364h.11V.302c-.286-.132-.902-.242-1.408-.242-2.332 0-4.202 2.266-4.576 5.456l-1.606 1.276v.088h1.584v9.02l-1.012.99V17h5.28zm7.456.33c3.388 0 5.72-2.508 5.72-6.072 0-3.476-2.222-5.808-5.5-5.808-3.388 0-5.698 2.508-5.698 6.072 0 3.476 2.2 5.808 5.478 5.808zm.374-.836c-1.738 0-2.882-2.222-2.882-5.698 0-2.948.858-4.532 2.354-4.532 1.738 0 2.904 2.222 2.904 5.698 0 2.948-.88 4.532-2.376 4.532zm8.032-.594l-1.012.99V17h5.06v-.11l-1.166-.99V8.662c.286-.66 1.1-1.232 1.65-1.232a.61.61 0 01.198.022l2.068 1.386h.11V5.736c-.198-.176-.616-.286-1.078-.286-1.078 0-1.914.638-2.904 2.266h-.11l-.154-2.266h-.22l-3.652 1.034v.088l1.21 1.1V15.9zm16.415 1.43c2.86 0 4.686-1.518 4.686-3.872 0-3.806-5.698-2.75-5.698-5.522 0-1.056.77-1.782 1.87-1.782.286 0 .55.044.748.132l2.332 1.98h.11V6.044c-.748-.352-2.024-.594-3.102-.594-2.662 0-4.422 1.474-4.422 3.652 0 3.828 5.676 2.772 5.676 5.544 0 1.166-.836 1.958-2.024 1.958a1.97 1.97 0 01-.924-.22l-2.882-2.332h-.11v2.486c.77.418 2.53.792 3.74.792zm10.207 0c1.364 0 2.64-.66 3.85-2.002h.132l.264 2.002 3.674-.902v-.11l-1.122-1.034V5.45h-.22l-3.872 1.056v.11l1.21 1.1v6.82c-.836.704-1.606 1.056-2.376 1.056-1.122 0-1.782-.704-1.782-1.87V5.428h-.22l-3.872 1.056v.11l1.21 1.1v6.666c0 1.738 1.254 2.97 3.124 2.97zm14.504 0c2.288 0 3.894-1.342 4.422-3.564l-.11-.066c-.66 1.012-1.628 1.562-2.86 1.562-2.398 0-4.136-2.002-4.136-4.84 0-2.288 1.188-4.136 2.684-4.136.176 0 .374 0 .594.066l2.992 2.442h.132v-2.75c-.748-.374-1.848-.594-2.86-.594-3.476 0-5.874 2.552-5.874 6.204 0 3.388 2.024 5.676 5.016 5.676zm10.441 0c2.288 0 3.894-1.342 4.422-3.564l-.11-.066c-.66 1.012-1.628 1.562-2.86 1.562-2.398 0-4.136-2.002-4.136-4.84 0-2.288 1.188-4.136 2.684-4.136.176 0 .374 0 .594.066l2.992 2.442h.132v-2.75c-.748-.374-1.848-.594-2.86-.594-3.476 0-5.874 2.552-5.874 6.204 0 3.388 2.024 5.676 5.016 5.676zm10.794 0c2.662 0 4.532-1.628 5.038-4.334l-.11-.066c-.924 1.54-2.222 2.332-3.784 2.332-2.42 0-4.026-1.87-4.158-4.774h7.898c-.594-3.322-2.222-5.038-4.774-5.038-3.124 0-5.478 2.618-5.478 6.138 0 3.432 2.2 5.742 5.368 5.742zm-.462-11.066c1.342 0 2.134 1.012 2.596 3.476h-5.148c.11-2.222 1.034-3.476 2.552-3.476zm10.676 11.066c2.86 0 4.686-1.518 4.686-3.872 0-3.806-5.698-2.75-5.698-5.522 0-1.056.77-1.782 1.87-1.782.286 0 .55.044.748.132l2.332 1.98h.11V6.044c-.748-.352-2.024-.594-3.102-.594-2.662 0-4.422 1.474-4.422 3.652 0 3.828 5.676 2.772 5.676 5.544 0 1.166-.836 1.958-2.024 1.958a1.97 1.97 0 01-.924-.22l-2.882-2.332h-.11v2.486c.77.418 2.53.792 3.74.792zm10.141 0c2.86 0 4.686-1.518 4.686-3.872 0-3.806-5.698-2.75-5.698-5.522 0-1.056.77-1.782 1.87-1.782.286 0 .55.044.748.132l2.332 1.98h.11V6.044c-.748-.352-2.024-.594-3.102-.594-2.662 0-4.422 1.474-4.422 3.652 0 3.828 5.676 2.772 5.676 5.544 0 1.166-.836 1.958-2.024 1.958a1.97 1.97 0 01-.924-.22l-2.882-2.332h-.11v2.486c.77.418 2.53.792 3.74.792z" fill="#fff"/></svg>