<svg width="194" height="25" viewBox="0 0 194 25" fill="none" xmlns="http://www.w3.org/2000/svg"><path d="M.472 19h3.266v-6.785h7.544V9.179H3.738V5.292h7.544V2.21H.472V19zm13.202 0h3.243V6.58h-3.243V19zM13.26 3.084c0 1.173.828 2.024 2.024 2.024 1.219 0 2.047-.851 2.047-2.024 0-1.196-.828-2.07-2.047-2.07-1.173 0-2.024.874-2.024 2.07zM19.446 19h3.197v-6.854c0-1.932 1.15-3.036 2.645-3.036 1.68 0 2.53 1.104 2.53 2.875V19h3.243v-7.498c0-3.243-1.863-5.175-4.807-5.175-1.54 0-2.829.69-3.634 1.817V6.58h-3.174V19zm17.903.253c1.955 0 3.657-.874 4.554-2.162V19h3.059v-7.636c0-3.128-2.093-5.037-5.75-5.037-2.783 0-4.6 1.173-5.865 2.829l2.92 1.449c.576-1.035 1.519-1.633 2.922-1.633 1.794 0 2.69.92 2.69 2.254v.161h-3.265c-3.45 0-5.59 1.587-5.59 4.163 0 2.185 1.61 3.703 4.325 3.703zm.92-2.622c-1.311 0-1.932-.46-1.932-1.357 0-.966.759-1.564 2.645-1.564h2.92v.667c-.62 1.334-2.115 2.254-3.633 2.254zM47.41 19h3.197v-6.854c0-1.932 1.15-3.036 2.645-3.036 1.679 0 2.53 1.104 2.53 2.875V19h3.243v-7.498c0-3.243-1.863-5.175-4.807-5.175-1.541 0-2.829.69-3.634 1.817V6.58H47.41V19zm20.202.253c2.967 0 5.037-1.656 6.095-3.956l-2.967-1.219c-.506 1.265-1.61 2.162-3.082 2.162-1.91 0-3.427-1.564-3.427-3.45 0-1.932 1.495-3.496 3.404-3.496 1.425 0 2.575.805 3.081 2.139l2.922-1.173c-.967-2.346-3.175-3.933-6.05-3.933-3.68 0-6.508 2.806-6.508 6.463 0 3.611 2.806 6.463 6.532 6.463zM75.576 19h3.243V6.58h-3.243V19zm-.414-15.916c0 1.173.828 2.024 2.024 2.024 1.219 0 2.047-.851 2.047-2.024 0-1.196-.828-2.07-2.047-2.07-1.173 0-2.024.874-2.024 2.07zm10.006 16.169c1.955 0 3.657-.874 4.554-2.162V19h3.06v-7.636c0-3.128-2.094-5.037-5.75-5.037-2.784 0-4.6 1.173-5.866 2.829l2.921 1.449c.575-1.035 1.518-1.633 2.921-1.633 1.794 0 2.691.92 2.691 2.254v.161h-3.266c-3.45 0-5.589 1.587-5.589 4.163 0 2.185 1.61 3.703 4.324 3.703zm.92-2.622c-1.31 0-1.932-.46-1.932-1.357 0-.966.76-1.564 2.645-1.564h2.921v.667c-.62 1.334-2.116 2.254-3.634 2.254zM95.23 19h3.174V.876H95.23V19zm11.051 0h3.243V6.58h-3.243V19zm-.414-15.916c0 1.173.828 2.024 2.024 2.024 1.219 0 2.047-.851 2.047-2.024 0-1.196-.828-2.07-2.047-2.07-1.173 0-2.024.874-2.024 2.07zM112.053 19h3.197v-6.854c0-1.932 1.15-3.036 2.645-3.036 1.679 0 2.53 1.104 2.53 2.875V19h3.243v-7.498c0-3.243-1.863-5.175-4.807-5.175-1.541 0-2.829.69-3.634 1.817V6.58h-3.174V19zm19.005.253c3.611.023 5.336-2.162 5.336-4.094 0-2.668-2.438-3.381-4.508-3.795-1.817-.391-2.829-.598-2.829-1.38 0-.69.598-1.196 1.84-1.196 1.15 0 1.932.483 2.438 1.311l2.898-1.173c-1.15-1.656-2.714-2.645-5.336-2.645-3.059-.023-5.083 1.794-5.083 3.887 0 2.622 2.323 3.266 4.416 3.703 1.587.322 2.921.529 2.921 1.426 0 .736-.69 1.357-1.978 1.357-1.311 0-2.3-.575-2.852-1.679l-3.059 1.196c.989 1.978 2.852 3.082 5.796 3.082zm7.319-.253h3.243V6.58h-3.243V19zm-.414-15.916c0 1.173.828 2.024 2.024 2.024 1.219 0 2.047-.851 2.047-2.024 0-1.196-.828-2.07-2.047-2.07-1.173 0-2.024.874-2.024 2.07zm11.73 16.1c1.61 0 3.036-.736 3.91-1.955v.943c0 1.955-1.426 3.312-3.427 3.312-1.633 0-2.553-.598-3.381-1.679l-2.622 2.047c1.403 1.633 3.266 2.461 6.095 2.461 3.818 0 6.509-2.622 6.509-6.233V6.58h-3.174v1.633c-.828-1.15-2.208-1.886-3.864-1.886-3.174 0-6.026 2.507-6.026 6.44 0 3.933 2.921 6.417 5.98 6.417zm.621-2.944c-1.909 0-3.45-1.541-3.45-3.496 0-1.978 1.541-3.496 3.45-3.496 1.955 0 3.45 1.541 3.45 3.496s-1.495 3.496-3.45 3.496zm8.951 2.76h3.151v-6.854c0-1.932 1.15-3.036 2.645-3.036 1.679 0 2.53 1.104 2.53 2.875V19h3.266v-7.498c0-3.243-1.886-5.175-4.83-5.175-1.518 0-2.783.667-3.611 1.771V.876h-3.151V19zm12.944-9.614h2.3v5.221c0 3.381 1.518 4.623 4.117 4.623 1.15 0 2.162-.345 2.967-.943l-1.449-2.484c-.368.322-.713.46-1.15.46-.805 0-1.357-.46-1.357-1.771V9.386h3.266V6.58h-3.266V2.049l-3.128 1.84V6.58h-2.3v2.806zm15.832 9.867c3.611.023 5.336-2.162 5.336-4.094 0-2.668-2.438-3.381-4.508-3.795-1.817-.391-2.829-.598-2.829-1.38 0-.69.598-1.196 1.84-1.196 1.15 0 1.932.483 2.438 1.311l2.898-1.173c-1.15-1.656-2.714-2.645-5.336-2.645-3.059-.023-5.083 1.794-5.083 3.887 0 2.622 2.323 3.266 4.416 3.703 1.587.322 2.921.529 2.921 1.426 0 .736-.69 1.357-1.978 1.357-1.311 0-2.3-.575-2.852-1.679l-3.059 1.196c.989 1.978 2.852 3.082 5.796 3.082z" fill="#fff"/></svg>