<svg width="93" height="12" viewBox="0 0 93 12" fill="none" xmlns="http://www.w3.org/2000/svg"><path d="M.704 9h1.562V5.755h3.608V4.303H2.266V2.444h3.608V.97H.704V9zm6.314 0h1.55V3.06h-1.55V9zM6.82 1.388c0 .561.396.968.968.968.583 0 .979-.407.979-.968 0-.572-.396-.99-.98-.99-.56 0-.967.418-.967.99zM9.779 9h1.529V5.722c0-.924.55-1.452 1.265-1.452.803 0 1.21.528 1.21 1.375V9h1.55V5.414c0-1.551-.89-2.475-2.298-2.475-.737 0-1.353.33-1.738.869V3.06H9.779V9zm8.562.121c.935 0 1.749-.418 2.178-1.034V9h1.463V5.348c0-1.496-1.001-2.409-2.75-2.409-1.331 0-2.2.561-2.805 1.353l1.397.693c.275-.495.726-.781 1.397-.781.858 0 1.287.44 1.287 1.078v.077h-1.562c-1.65 0-2.673.759-2.673 1.991 0 1.045.77 1.771 2.068 1.771zm.44-1.254c-.627 0-.924-.22-.924-.649 0-.462.363-.748 1.265-.748h1.397v.319c-.297.638-1.012 1.078-1.738 1.078zM23.153 9h1.529V5.722c0-.924.55-1.452 1.265-1.452.803 0 1.21.528 1.21 1.375V9h1.55V5.414c0-1.551-.89-2.475-2.298-2.475-.737 0-1.353.33-1.738.869V3.06h-1.518V9zm9.661.121c1.42 0 2.41-.792 2.915-1.892l-1.419-.583c-.242.605-.77 1.034-1.474 1.034a1.645 1.645 0 01-1.639-1.65c0-.924.715-1.672 1.628-1.672.682 0 1.232.385 1.474 1.023l1.397-.561c-.462-1.122-1.518-1.881-2.893-1.881-1.76 0-3.113 1.342-3.113 3.091 0 1.727 1.342 3.091 3.124 3.091zM36.624 9h1.55V3.06h-1.55V9zm-.199-7.612c0 .561.396.968.968.968.583 0 .98-.407.98-.968 0-.572-.397-.99-.98-.99-.56 0-.968.418-.968.99zm4.786 7.733c.935 0 1.749-.418 2.178-1.034V9h1.463V5.348c0-1.496-1.001-2.409-2.75-2.409-1.331 0-2.2.561-2.805 1.353l1.397.693c.275-.495.726-.781 1.397-.781.858 0 1.287.44 1.287 1.078v.077h-1.562c-1.65 0-2.673.759-2.673 1.991 0 1.045.77 1.771 2.068 1.771zm.44-1.254c-.627 0-.924-.22-.924-.649 0-.462.363-.748 1.265-.748h1.397v.319c-.297.638-1.012 1.078-1.738 1.078zM46.023 9h1.518V.332h-1.518V9zm5.285 0h1.55V3.06h-1.55V9zm-.198-7.612c0 .561.396.968.968.968.583 0 .979-.407.979-.968 0-.572-.396-.99-.98-.99-.56 0-.967.418-.967.99zM54.069 9h1.529V5.722c0-.924.55-1.452 1.265-1.452.803 0 1.21.528 1.21 1.375V9h1.55V5.414c0-1.551-.89-2.475-2.298-2.475-.737 0-1.353.33-1.738.869V3.06h-1.518V9zm9.09.121c1.726.011 2.551-1.034 2.551-1.958 0-1.276-1.166-1.617-2.156-1.815-.869-.187-1.353-.286-1.353-.66 0-.33.286-.572.88-.572.55 0 .924.231 1.166.627l1.386-.561c-.55-.792-1.298-1.265-2.552-1.265-1.463-.011-2.43.858-2.43 1.859 0 1.254 1.11 1.562 2.111 1.771.76.154 1.397.253 1.397.682 0 .352-.33.649-.946.649-.627 0-1.1-.275-1.364-.803l-1.463.572c.473.946 1.364 1.474 2.772 1.474zm3.5-.121h1.55V3.06h-1.55V9zm-.199-7.612c0 .561.397.968.969.968.582 0 .978-.407.978-.968 0-.572-.395-.99-.978-.99-.561 0-.969.418-.969.99zm5.61 7.7c.77 0 1.453-.352 1.87-.935v.451c0 .935-.681 1.584-1.638 1.584-.781 0-1.221-.286-1.617-.803l-1.254.979c.67.781 1.562 1.177 2.915 1.177 1.826 0 3.113-1.254 3.113-2.981v-5.5H73.94v.781c-.396-.55-1.056-.902-1.848-.902-1.518 0-2.882 1.199-2.882 3.08s1.397 3.069 2.86 3.069zm.298-1.408c-.913 0-1.65-.737-1.65-1.672 0-.946.737-1.672 1.65-1.672.935 0 1.65.737 1.65 1.672 0 .935-.715 1.672-1.65 1.672zM76.648 9h1.508V5.722c0-.924.55-1.452 1.265-1.452.803 0 1.21.528 1.21 1.375V9h1.562V5.414c0-1.551-.902-2.475-2.31-2.475-.726 0-1.331.319-1.727.847V.332h-1.507V9zm6.191-4.598h1.1v2.497c0 1.617.726 2.211 1.97 2.211.55 0 1.033-.165 1.418-.451l-.693-1.188a.782.782 0 01-.55.22c-.385 0-.649-.22-.649-.847V4.402h1.562V3.06h-1.562V.893l-1.496.88V3.06h-1.1v1.342zm7.572 4.719c1.727.011 2.552-1.034 2.552-1.958 0-1.276-1.166-1.617-2.156-1.815-.869-.187-1.353-.286-1.353-.66 0-.33.286-.572.88-.572.55 0 .924.231 1.166.627l1.386-.561c-.55-.792-1.298-1.265-2.552-1.265-1.463-.011-2.43.858-2.43 1.859 0 1.254 1.11 1.562 2.111 1.771.76.154 1.397.253 1.397.682 0 .352-.33.649-.946.649-.627 0-1.1-.275-1.364-.803l-1.463.572c.473.946 1.364 1.474 2.772 1.474z" fill="#fff"/></svg>