<svg width="55" height="10" viewBox="0 0 55 10" fill="none" xmlns="http://www.w3.org/2000/svg"><path d="M3.102 9v-.055l-.693-.495V3.94h1.254l.077-.55H2.552c-.594 0-.869-.264-.869-.814 0-.649.319-1.232.671-1.276l1.562.682h.055V.651C3.828.585 3.52.53 3.267.53 2.101.53 1.166 1.663.979 3.258l-.803.638v.044h.792v4.51l-.506.495V9h2.64zm3.728.165c1.694 0 2.86-1.254 2.86-3.036 0-1.738-1.11-2.904-2.75-2.904-1.694 0-2.849 1.254-2.849 3.036 0 1.738 1.1 2.904 2.739 2.904zm.187-.418c-.869 0-1.441-1.111-1.441-2.849 0-1.474.43-2.266 1.177-2.266.869 0 1.452 1.111 1.452 2.849 0 1.474-.44 2.266-1.188 2.266zm4.016-.297l-.506.495V9h2.53v-.055l-.583-.495V4.831c.143-.33.55-.616.825-.616.033 0 .066 0 .1.011l1.033.693h.055V3.368c-.099-.088-.308-.143-.539-.143-.539 0-.957.319-1.452 1.133h-.055l-.077-1.133h-.11l-1.826.517v.044l.605.55V8.45zm8.208.715c1.43 0 2.343-.759 2.343-1.936 0-1.903-2.85-1.375-2.85-2.761 0-.528.386-.891.936-.891.143 0 .275.022.374.066l1.166.99h.055V3.522c-.374-.176-1.012-.297-1.551-.297-1.331 0-2.211.737-2.211 1.826 0 1.914 2.838 1.386 2.838 2.772 0 .583-.418.979-1.012.979a.985.985 0 01-.462-.11l-1.441-1.166h-.055v1.243c.385.209 1.265.396 1.87.396zm5.103 0c.682 0 1.32-.33 1.925-1.001h.066l.132 1.001 1.837-.451v-.055l-.561-.517V3.225h-.11l-1.936.528v.055l.605.55v3.41c-.418.352-.803.528-1.188.528-.561 0-.891-.352-.891-.935V3.214h-.11l-1.936.528v.055l.605.55V7.68c0 .869.627 1.485 1.562 1.485zm7.252 0c1.144 0 1.947-.671 2.211-1.782l-.055-.033c-.33.506-.814.781-1.43.781-1.199 0-2.068-1.001-2.068-2.42 0-1.144.594-2.068 1.342-2.068.088 0 .187 0 .297.033l1.496 1.221h.066V3.522c-.374-.187-.924-.297-1.43-.297-1.738 0-2.937 1.276-2.937 3.102 0 1.694 1.012 2.838 2.508 2.838zm5.22 0c1.145 0 1.948-.671 2.212-1.782l-.055-.033c-.33.506-.814.781-1.43.781-1.2 0-2.068-1.001-2.068-2.42 0-1.144.594-2.068 1.342-2.068.088 0 .187 0 .297.033l1.496 1.221h.066V3.522c-.374-.187-.924-.297-1.43-.297-1.738 0-2.937 1.276-2.937 3.102 0 1.694 1.012 2.838 2.508 2.838zm5.398 0c1.33 0 2.266-.814 2.519-2.167l-.055-.033c-.462.77-1.111 1.166-1.892 1.166-1.21 0-2.014-.935-2.08-2.387h3.95c-.297-1.661-1.111-2.519-2.387-2.519-1.563 0-2.74 1.309-2.74 3.069 0 1.716 1.1 2.871 2.684 2.871zm-.231-5.533c.67 0 1.067.506 1.298 1.738h-2.575c.055-1.111.517-1.738 1.276-1.738zm5.338 5.533c1.43 0 2.343-.759 2.343-1.936 0-1.903-2.85-1.375-2.85-2.761 0-.528.386-.891.936-.891.143 0 .275.022.374.066l1.166.99h.055V3.522c-.374-.176-1.012-.297-1.551-.297-1.331 0-2.211.737-2.211 1.826 0 1.914 2.838 1.386 2.838 2.772 0 .583-.418.979-1.012.979a.985.985 0 01-.462-.11l-1.441-1.166h-.055v1.243c.385.209 1.265.396 1.87.396zm5.07 0c1.43 0 2.343-.759 2.343-1.936 0-1.903-2.849-1.375-2.849-2.761 0-.528.385-.891.935-.891.143 0 .275.022.374.066l1.166.99h.055V3.522c-.374-.176-1.012-.297-1.55-.297-1.332 0-2.212.737-2.212 1.826 0 1.914 2.838 1.386 2.838 2.772 0 .583-.418.979-1.012.979a.985.985 0 01-.462-.11l-1.44-1.166h-.056v1.243c.385.209 1.265.396 1.87.396z" fill="#fff"/></svg>