<svg width="66" height="19" viewBox="0 0 66 19" fill="none" xmlns="http://www.w3.org/2000/svg"><g filter="url(#filter0_d_302_27)"><rect x="4" y="3" width="58" height="10.577" rx="5.288" fill="#ED4536"/><path d="M19.89 10h.704V8.85h.82L22 10h.79l-.72-1.335c.405-.205.64-.62.64-1.08 0-.695-.5-1.235-1.34-1.235h-1.48V10zm1.424-3c.45 0 .68.23.68.59 0 .325-.215.615-.68.615h-.72V7h.72zm3.098 3.055c.595 0 .975-.245 1.245-.625l-.565-.33c-.135.22-.35.36-.67.36-.4 0-.685-.22-.775-.57h2.145v-.26c0-.8-.585-1.385-1.395-1.385-.805 0-1.415.625-1.415 1.41 0 .785.56 1.4 1.43 1.4zm-.015-2.225c.36 0 .62.185.71.52h-1.44a.75.75 0 01.73-.52zm2.645 2.225c.425 0 .795-.19.99-.47V10h.665V8.34c0-.68-.455-1.095-1.25-1.095-.605 0-1 .255-1.275.615l.635.315c.125-.225.33-.355.635-.355.39 0 .585.2.585.49v.035h-.71c-.75 0-1.215.345-1.215.905 0 .475.35.805.94.805zm.2-.57c-.285 0-.42-.1-.42-.295 0-.21.165-.34.575-.34h.635v.145a.89.89 0 01-.79.49zm3.202.57c.35 0 .655-.16.845-.425V10h.68V6.055h-.68v1.59a1.01 1.01 0 00-.835-.4c-.69 0-1.31.545-1.31 1.405s.635 1.405 1.3 1.405zm.135-.65a.751.751 0 01-.75-.76c0-.425.335-.76.75-.76.425 0 .75.34.75.76s-.325.76-.75.76zm3.153.595h.7V7.465l1.065 1.445 1.095-1.47V10h.69V6.35h-.655l-1.125 1.505-1.085-1.505h-.685V10zm5.435.055c.815 0 1.43-.63 1.43-1.405 0-.78-.625-1.405-1.43-1.405-.81 0-1.425.625-1.425 1.405 0 .775.615 1.405 1.425 1.405zm.005-.655a.742.742 0 01-.74-.755c0-.42.325-.755.74-.755.41 0 .74.335.74.755s-.33.755-.74.755zm1.878.6h.685V8.575c0-.455.23-.635.585-.635.155 0 .285.04.36.095l.25-.68a1.002 1.002 0 00-.455-.105c-.345 0-.615.145-.745.465V7.3h-.68V10zm3.357.055c.595 0 .975-.245 1.245-.625l-.565-.33c-.135.22-.35.36-.67.36-.4 0-.685-.22-.775-.57h2.145v-.26c0-.8-.585-1.385-1.395-1.385-.805 0-1.415.625-1.415 1.41 0 .785.56 1.4 1.43 1.4zm-.015-2.225c.36 0 .62.185.71.52h-1.44a.75.75 0 01.73-.52z" fill="#fff"/></g><defs><filter id="filter0_d_302_27" x="0" y="0" width="66" height="19" filterUnits="userSpaceOnUse" color-interpolation-filters="sRGB"><feFlood flood-opacity="0" result="BackgroundImageFix"/><feColorMatrix in="SourceAlpha" values="0 0 0 0 0 0 0 0 0 0 0 0 0 0 0 0 0 0 127 0" result="hardAlpha"/><feOffset dy="1"/><feGaussianBlur stdDeviation="2"/><feComposite in2="hardAlpha" operator="out"/><feColorMatrix values="0 0 0 0 0 0 0 0 0 0 0 0 0 0 0 0 0 0 0.25 0"/><feBlend in2="BackgroundImageFix" result="effect1_dropShadow_302_27"/><feBlend in="SourceGraphic" in2="effect1_dropShadow_302_27" result="shape"/></filter></defs></svg>