<svg width="28" height="5" viewBox="0 0 28 5" fill="none" xmlns="http://www.w3.org/2000/svg"><path d="M.443 4h.328V1.628l1.036 1.408 1.072-1.44V4h.324V1.08h-.316L1.811 2.516.775 1.08H.443V4zm4.407.044c.472 0 .784-.204 1.004-.548l-.28-.164c-.148.264-.38.416-.724.416-.456 0-.772-.292-.82-.704h1.908v-.148c0-.64-.468-1.1-1.1-1.1-.648 0-1.128.496-1.128 1.132 0 .632.448 1.116 1.14 1.116zm-.012-1.956c.42 0 .712.26.764.668H4.038a.802.802 0 01.8-.668zM6.43 4h.328V2.784c0-.436.26-.696.632-.696.384 0 .596.24.596.612V4h.328V2.756c0-.424.268-.668.628-.668.396 0 .616.264.616.644V4h.332V2.728c0-.564-.316-.932-.916-.932-.36 0-.64.18-.776.448-.116-.272-.368-.448-.752-.448-.316 0-.556.14-.692.36V1.84H6.43V4zm5.163.044c.612 0 1.1-.464 1.1-1.124 0-.66-.496-1.124-1.096-1.124-.32 0-.64.16-.812.424V.844h-.324V4h.32v-.384a.97.97 0 00.812.428zm-.028-.308a.803.803 0 01-.808-.82c0-.448.348-.82.808-.82.448 0 .792.36.792.82 0 .472-.344.82-.792.82zm2.675.308c.472 0 .784-.204 1.004-.548l-.28-.164c-.149.264-.38.416-.724.416-.457 0-.772-.292-.82-.704h1.908v-.148c0-.64-.469-1.1-1.1-1.1-.648 0-1.128.496-1.128 1.132 0 .632.447 1.116 1.14 1.116zm-.012-1.956c.42 0 .712.26.764.668h-1.565a.802.802 0 01.8-.668zM15.82 4h.324V2.816c0-.476.208-.684.568-.684.116 0 .204.028.264.068l.136-.312a.706.706 0 00-.36-.08c-.308 0-.524.152-.616.44V1.84h-.316V4zm2.724 0h.336V2.736h1.496v-.32h-1.496v-1.02h1.496V1.08h-1.832V4zm2.387 0h.868c.86 0 1.508-.628 1.508-1.46 0-.828-.608-1.46-1.52-1.46h-.856V4zm.824-2.616c.748 0 1.216.496 1.216 1.156 0 .652-.5 1.148-1.204 1.148h-.5V1.384h.488zM23.928 4h.332V1.08h-.332V4zm2.451.04c.592 0 1.076-.324 1.328-.804l-.296-.156a1.124 1.124 0 01-1.036.636 1.16 1.16 0 01-1.16-1.176c0-.652.504-1.184 1.164-1.184.44 0 .8.24 1 .596l.288-.176c-.26-.44-.74-.736-1.288-.736-.832 0-1.5.66-1.5 1.5 0 .828.652 1.5 1.5 1.5z" fill="#fff"/></svg>