<svg width="78" height="18" viewBox="0 0 78 18" fill="none" xmlns="http://www.w3.org/2000/svg"><path d="M32.45 13.67h-1.058v-.678h2.829v.678h-1.048v3.127h-.724V13.67z" fill="#fff"/><path d="M33.772 15.39c0-.813.641-1.465 1.485-1.465.844 0 1.49.651 1.49 1.465 0 .813-.64 1.465-1.49 1.465-.849 0-1.485-.657-1.485-1.465zm2.261-.005a.776.776 0 00-.771-.787.776.776 0 00-.772.787c0 .437.339.787.772.787s.771-.35.771-.787zM37.08 15.385c0-.892.647-1.46 1.366-1.46.375 0 .687.167.875.427v-.37h.718v2.606c0 .818-.61 1.412-1.474 1.412-.64 0-1.062-.188-1.38-.557l.593-.464c.188.245.396.38.767.38.453 0 .776-.307.776-.75v-.213c-.199.276-.521.443-.886.443-.693 0-1.355-.563-1.355-1.454zm2.277-.006a.776.776 0 00-.781-.792.773.773 0 00-.782.792c0 .449.35.793.782.793.432 0 .781-.35.781-.793zM40.409 15.395c0-.819.636-1.47 1.474-1.47.839 0 1.454.61 1.454 1.444v.27h-2.235c.094.365.39.594.807.594.333 0 .557-.145.698-.375l.589.344c-.282.396-.678.651-1.298.651-.906 0-1.49-.64-1.49-1.459h.001zm.713-.318h1.5c-.093-.35-.364-.542-.74-.542a.772.772 0 00-.76.542zM43.508 13.982h.52v-.61l.71-.416v1.026h.74v.636h-.74v1.156c0 .298.125.402.307.402a.37.37 0 00.26-.105l.329.563a1.11 1.11 0 01-.672.213c-.589 0-.933-.281-.933-1.047v-1.184h-.52v-.636.002zM45.926 12.69h.713v1.636a.997.997 0 01.818-.4c.667 0 1.094.437 1.094 1.172v1.699h-.74v-1.59c0-.401-.193-.651-.573-.651-.339 0-.6.25-.6.688v1.553h-.713V12.69zM48.91 15.395c0-.819.636-1.47 1.475-1.47.838 0 1.453.61 1.453 1.444v.27h-2.234c.093.365.39.594.807.594.333 0 .557-.145.698-.375l.588.344c-.28.396-.677.651-1.297.651-.906 0-1.49-.64-1.49-1.459zm.714-.318h1.5c-.093-.35-.364-.542-.74-.542a.772.772 0 00-.76.542zM52.203 13.982h.709v.433c.135-.333.416-.485.776-.485.187 0 .354.047.474.11l-.261.709a.66.66 0 00-.375-.1c-.37 0-.61.188-.61.663v1.485h-.713v-2.815zM55.566 16.798v-.028l.267-.235V14.24h-.407v-.028l.413-.3c.067-.814.524-1.404 1.097-1.404.111 0 .25.022.323.056v.596h-.028l-.708-.312c-.194.033-.356.362-.356.719 0 .29.128.417.412.417h.563l-.04.256h-.662v2.296l.362.235v.028h-1.237.001zM57.187 15.427c0-.886.574-1.528 1.393-1.528.818 0 1.325.591 1.325 1.455 0 .864-.574 1.527-1.392 1.527-.819 0-1.326-.59-1.326-1.454zm2.083.1c0-.864-.318-1.432-.79-1.432-.413 0-.659.418-.659 1.16 0 .863.318 1.431.792 1.431.412 0 .657-.417.657-1.159zM60.49 14.44l-.317-.262v-.028l.824-.25h.05l.04.562h.027c.256-.401.468-.563.747-.563.122 0 .234.034.29.073v.696h-.028l-.496-.334c-.017-.006-.033-.006-.05-.006-.156 0-.396.173-.479.368v1.84l.29.233v.028h-1.164v-.027l.267-.235V14.44zM64.624 16.887c-.273 0-.635-.056-.958-.167v-3.667l-.312-.262v-.023l.87-.262h.055v1.844h.034c.283-.323.512-.451.819-.451.651 0 1.125.574 1.125 1.365 0 .947-.68 1.622-1.633 1.622zm.145-2.575a.575.575 0 00-.49.245v1.978a.87.87 0 00.496.14c.54 0 .903-.424.903-1.12 0-.697-.373-1.243-.909-1.243zM66.557 15.45c0-.887.585-1.55 1.348-1.55.613 0 1.02.434 1.17 1.254h-2.022c.01.769.428 1.27 1.058 1.27.401 0 .73-.211.97-.63l.028.017c-.129.663-.586 1.07-1.231 1.07-.78 0-1.32-.574-1.32-1.432zm.502-.474h1.42c-.128-.619-.34-.881-.702-.881-.407 0-.674.329-.72.88h.002zM69.627 16.402v-2.163h-.396v-.028l.914-.752h.094v.524h.802l-.04.256h-.763v1.85c0 .3.15.44.396.44a.681.681 0 00.468-.2l.023.016a.929.929 0 01-.841.535c-.318 0-.586-.156-.658-.479zM71.593 16.402v-2.163h-.395v-.028l.913-.752h.095v.524h.802l-.04.256h-.763v1.85c0 .3.15.44.396.44a.68.68 0 00.468-.2l.022.016a.928.928 0 01-.84.535c-.318 0-.586-.156-.658-.479zM73.254 15.45c0-.887.585-1.55 1.348-1.55.613 0 1.019.434 1.17 1.254h-2.023c.011.769.429 1.27 1.059 1.27.4 0 .73-.211.97-.63l.027.017c-.128.663-.585 1.07-1.23 1.07-.78 0-1.321-.574-1.321-1.432zm.501-.474h1.42c-.128-.619-.34-.881-.702-.881-.407 0-.674.329-.719.88h.001zM76.34 14.44l-.318-.262v-.028l.824-.25h.05l.04.562h.027c.256-.401.469-.563.747-.563.122 0 .234.034.29.073v.696h-.028l-.496-.334c-.017-.006-.033-.006-.05-.006-.156 0-.395.173-.479.368v1.84l.29.233v.028h-1.164v-.027l.267-.235V14.44zM56.55 4.629c.411-.004 1.115.09 1.114.624-.003.537-.566.913-1.116.932l.001-1.557zm-.005 2.17c.713-.038 1.303.243 1.308.736-.003.531-.712.88-1.312.929l.004-1.664zm-.831 2.423c2.299-.004 3.518-.884 3.522-1.739.002-.684-.721-1.038-1.27-1.132v-.048c.843-.357 1.003-.848 1.004-1.133-.002-.412-.186-1.018-1.852-1.19-.513-.037-1.01-.075-1.894-.072.049.168.05 1.449.047 1.682v.841c-.002.143-.004 2.394-.052 2.787l.495.005zm12 .061c-.024-.262.024-3.024.024-3.268.099.124 3.45 2.945 4.078 3.357l.048-.016c.02-.66.097-1.811.142-2.886.078-1.096.13-2.115.18-2.55l-1.265-.05c0 .318-.032 2.938-.032 3.25-.262-.213-3.33-2.817-4.065-3.363l-.053.024c-.05.453-.133 1.676-.204 2.86a57.025 57.025 0 01-.145 2.606l1.292.037zm6.876.028c-.026-.148-.05-1.842-.05-2.408l.003-.266.053.002c.488.644 2.279 2.571 2.375 2.698l1.028-.886c-.284-.305-1.758-1.696-2.042-1.983.42-.397 1.588-1.448 1.905-1.76l-.955-.84c-.166.204-1.887 1.986-2.315 2.485l-.051-.004v-.251c.002-.674.033-2.123.055-2.246h-1.41c-.003.168.02 1.665.02 2.31v.815c-.005.846-.029 2.122-.031 2.333l1.414.001zm-65.28.413l1.72.739-.208.5-1.588-.537-1.59.823-1.474-.65-1.519.744-1.636-.782-1.553.637-.255-.476 1.71-.84 1.891.67 1.311-.705 1.344.632 1.849-.755H9.31zm-3.245-8.47l2.03 2.113-1.83-.298 2.44 2.421-2.601-.53 2.495 2.462-2.827-.602.378 2.314-1.176-.001.31-2.277-2.113 1.187 1.68-2.98-1.844.932 2.22-3.178-1.382.365 2.22-1.927zM1.013 0l-.57.039-.427 3.047.106 3.726-.058 3.675L0 12.998l3.367-.036 4.52.095 3.102-.242 1.248-.14-.103-5.401-.4-3.196.217-3.62L4.219.046 1.013 0zM21.34 5.19l.004-1.238-1.34-.003c.022.261.06.736.057 1.241v.265c-.002 1.353-.025 1.887-.3 2.292-.202.285-.52.477-.936.476-.35-.002-.686-.128-.898-.448-.287-.393-.353-.908-.349-2.014l.002-.475c.003-.657.025-1.048.064-1.225l-1.383.002v1.055l-.002.385c0 1.766.12 2.295.491 2.829.55.782 1.442.876 1.98.878.828 0 1.485-.256 1.966-.79.563-.658.641-1.503.645-2.895l-.002-.334h.001zm1.316 4.113c.11-.306.916-2.68 1.053-3.012h.01c.133.291.989 1.741 1.522 2.55l.032-.002c.482-.616 1.606-2.375 1.778-2.58.085.168.96 2.467 1.218 3.043l1.159-.493c-.265-.538-1.703-3.904-2.128-4.772l-.035.002c-.306.46-1.588 2.536-1.87 2.932-.223-.349-1.463-2.471-1.838-3.096l-.044.003c-.28.623-1.852 4.73-1.996 5.022l1.14.403zm8.738-4.49c1.116.033 1.3.568 1.3.936-.002.674-.655 1.091-1.303 1.224l.002-2.16zm-.007 4.378c-.002-.132-.001-.955.002-1.099l.003-.303c1.703-.282 2.662-1.235 2.664-2.228 0-.828-.677-1.264-1.578-1.444-.566-.118-1.417-.162-2.441-.162.001.117.044 1.632.042 1.806l-.002.81c0 .515-.025 2.319-.046 2.62h1.356zm4.61-2.526c.002-.935.535-1.817 1.63-1.819.735.004 1.431.516 1.428 1.615 0 1.226-.772 1.83-1.586 1.83-.768 0-1.473-.53-1.473-1.625m4.685 2.2c-.545-.025-1.11-.059-1.706-.111l.002-.03c.974-.502 1.492-1.383 1.492-2.344.005-1.5-1.085-2.463-2.744-2.463-1.951.002-3.147 1.349-3.147 2.803-.005.67.262 1.355.858 1.844.753.623 1.818.645 1.911.645.07 0 .272.015.586.076.838.162 1.781.382 2.586.547l.161-.967zm5.617-3.676l-.001-1.238h-1.33c.002.259.024.736.022 1.24l-.002.263c0 1.353-.003 1.887-.291 2.293a1.08 1.08 0 01-.913.475c-.374 0-.687-.129-.896-.448-.317-.393-.35-.91-.346-2.012v-.478c.001-.654.002-1.049.02-1.222h-1.344c0 .157-.017.734-.019 1.057v.386c0 1.761.144 2.293.51 2.828.543.781 1.452.875 1.962.878.842-.003 1.498-.255 1.962-.792.57-.657.66-1.5.663-2.893l.002-.336h.001zm2.294 1.946c.147-.288.647-1.3.81-1.583.133.231.662 1.197.847 1.511l-1.658.072zm-1.046 2.132c.187-.289.582-1.15.653-1.296l2.41-.115c.09.112.665 1.08.821 1.412l1.176-.669c-.403-.553-2.342-3.664-3.143-4.853l-.057.002c-.512.773-2.65 4.414-2.958 4.93l1.098.59zm14.233-2.133c.148-.288.648-1.301.81-1.583.134.23.662 1.197.847 1.511l-1.658.072h.001zm-1.046 2.132c.187-.289.583-1.151.654-1.297l2.41-.115c.09.113.664 1.08.82 1.412l1.177-.668c-.404-.553-2.342-3.664-3.144-4.854l-.056.003c-.513.772-2.65 4.414-2.959 4.929l1.098.59z" fill="#fff"/></svg>