<svg width="71" height="12" viewBox="0 0 71 12" fill="none" xmlns="http://www.w3.org/2000/svg"><path d="M4.565 9.165c.44 0 .847-.264 1.023-.649v-.055l-.594-.264V4.578c0-.803-.759-1.353-1.87-1.353-1.254 0-2.112.693-2.299 1.87l.044.011c.374-.627 1.023-1.012 1.694-1.012.616 0 .99.319.99.825v.66l-1.067.396C1.034 6.492.396 7.086.396 7.889c0 .737.539 1.276 1.32 1.276.605 0 1.243-.33 1.804-.913h.077c.055.539.44.913.968.913zM1.716 7.427c0-.506.363-.902 1.133-1.199l.704-.275v1.936c-.253.297-.583.451-.913.451-.539 0-.924-.374-.924-.913zm6.43-2.816c.417-.352.824-.517 1.22-.517.572 0 .924.352.924.924v3.41l-.517.517V9h2.464v-.055l-.506-.495V4.71c0-.88-.649-1.485-1.595-1.485-.704 0-1.353.33-1.958 1.001h-.066l-.077-1.001h-.11L6.1 3.731v.055l.605.55V8.45l-.506.495V9h2.464v-.055l-.517-.495V4.611zm4.786 1.859c0 1.573.935 2.706 2.255 2.706.616 0 1.056-.253 1.628-.924h.066l.12.913 1.87-.44V8.67l-.571-.539V.53h-.11l-1.936.528v.044l.605.561V3.39c-.187-.088-.561-.165-.946-.165-1.683 0-2.981 1.397-2.981 3.245zm1.375-.671c0-1.331.649-2.145 1.65-2.145.363 0 .693.099.902.264v3.938a1.002 1.002 0 01-.825.396c-1.012 0-1.727-1.034-1.727-2.453zm9.531 3.366c1.43 0 2.343-.759 2.343-1.936 0-1.903-2.849-1.375-2.849-2.761 0-.528.385-.891.935-.891.143 0 .275.022.374.066l1.166.99h.055V3.522c-.374-.176-1.012-.297-1.55-.297-1.332 0-2.212.737-2.212 1.826 0 1.914 2.838 1.386 2.838 2.772 0 .583-.418.979-1.012.979a.985.985 0 01-.462-.11l-1.44-1.166h-.056v1.243c.385.209 1.265.396 1.87.396zm5.016 0c.759 0 1.43-.418 1.749-1.1l-.044-.033c-.253.22-.561.341-.858.341-.462 0-.781-.264-.781-.847V3.94h1.43l.077-.55H28.92V2.268h-.187L26.72 3.885v.055h.759v4.246c.154.682.737.979 1.375.979zm2.837-.715l-.506.495V9h2.53v-.055l-.583-.495V4.831c.143-.33.55-.616.825-.616.033 0 .066 0 .099.011l1.034.693h.055V3.368c-.1-.088-.308-.143-.54-.143-.538 0-.956.319-1.451 1.133h-.055l-.077-1.133h-.11l-1.826.517v.044l.605.55V8.45zm7.893.715c.44 0 .847-.264 1.023-.649v-.055l-.593-.264V4.578c0-.803-.76-1.353-1.87-1.353-1.255 0-2.112.693-2.3 1.87l.044.011c.375-.627 1.023-1.012 1.695-1.012.616 0 .99.319.99.825v.66l-1.068.396c-1.452.517-2.09 1.111-2.09 1.914 0 .737.54 1.276 1.32 1.276.605 0 1.243-.33 1.804-.913h.078c.055.539.44.913.968.913zm-2.849-1.738c0-.506.364-.902 1.133-1.199l.704-.275v1.936c-.253.297-.583.451-.913.451-.538 0-.923-.374-.923-.913zm6.32 1.738c.759 0 1.43-.418 1.749-1.1l-.044-.033c-.253.22-.561.341-.858.341-.462 0-.781-.264-.781-.847V3.94h1.43l.077-.55H43.12V2.268h-.187L40.92 3.885v.055h.759v4.246c.154.682.737.979 1.375.979zm4.906 0c1.33 0 2.266-.814 2.519-2.167l-.055-.033c-.462.77-1.111 1.166-1.892 1.166-1.21 0-2.013-.935-2.08-2.387h3.95c-.297-1.661-1.111-2.519-2.387-2.519-1.562 0-2.74 1.309-2.74 3.069 0 1.716 1.1 2.871 2.685 2.871zm-.231-5.533c.67 0 1.067.506 1.298 1.738h-2.574c.055-1.111.517-1.738 1.276-1.738zm5.756 7.568c1.749 0 3.08-.913 3.08-2.123 0-.572-.286-1.045-.737-1.188h-2.86c-.451 0-.748-.253-.748-.616 0-.22.132-.407.363-.506.275.088.572.132.89.132 1.332 0 2.355-.825 2.355-1.848 0-.55-.297-1.045-.803-1.287l.01-.044 1.288.341h.055v-.858h-.055l-1.518.319a2.798 2.798 0 00-1.276-.297c-1.287 0-2.3.836-2.3 1.892 0 .693.44 1.265 1.123 1.562v.022c-.638.176-1.056.649-1.056 1.232 0 .418.22.737.55.913v.044l-.704.297c-.11.099-.165.275-.165.484 0 .88 1.045 1.529 2.508 1.529zm.132-4.653c-.594 0-.99-.605-.99-1.639 0-.869.286-1.331.814-1.331.605 0 1 .616 1 1.639 0 .869-.285 1.331-.824 1.331zm-1.75 2.871c0-.198.056-.374.155-.484.165.055.34.088.539.088h2.299c.462 0 .682.187.682.572 0 .704-.748 1.188-1.738 1.188-1.1 0-1.936-.594-1.936-1.364zm6.448-7.337c.495 0 .825-.297.825-.781 0-.484-.33-.77-.825-.77-.506 0-.836.286-.836.77 0 .484.33.781.836.781zM59.548 9v-.044l-.517-.506V3.225h-.11l-1.936.528v.044l.605.55V8.45l-.506.506V9h2.464zm3.516.165c1.331 0 2.266-.814 2.52-2.167l-.056-.033c-.462.77-1.11 1.166-1.892 1.166-1.21 0-2.013-.935-2.079-2.387h3.95c-.298-1.661-1.112-2.519-2.388-2.519-1.562 0-2.739 1.309-2.739 3.069 0 1.716 1.1 2.871 2.684 2.871zm-.23-5.533c.67 0 1.066.506 1.297 1.738h-2.574c.055-1.111.517-1.738 1.276-1.738zm5.337 5.533c1.43 0 2.343-.759 2.343-1.936 0-1.903-2.849-1.375-2.849-2.761 0-.528.385-.891.935-.891.143 0 .275.022.374.066l1.166.99h.055V3.522c-.374-.176-1.012-.297-1.55-.297-1.332 0-2.212.737-2.212 1.826 0 1.914 2.838 1.386 2.838 2.772 0 .583-.418.979-1.012.979a.985.985 0 01-.462-.11l-1.44-1.166H66.3v1.243c.385.209 1.265.396 1.87.396z" fill="#fff"/></svg>